HIERARCHY
ROOT Hips
{
   OFFSET 0.00000 0.00000 0.00000
   CHANNELS 6 Xposition Yposition Zposition Zrotation Xrotation Yrotation
   JOINT Spine
   {
      OFFSET 0.000000 11.890501 0.000000
      CHANNELS 3 Zrotation Xrotation Yrotation
      JOINT Spine1
      {
         OFFSET -0.000000 25.657401 0.127660
         CHANNELS 3 Zrotation Xrotation Yrotation
         JOINT HEad
         {
            OFFSET 0.000000 8.734161 0.011340
            CHANNELS 3 Zrotation Xrotation Yrotation
            End Site
            {
               OFFSET -0.290000 12.774200 2.513950
            }
         }
         JOINT LeftShoulder1
         {
            OFFSET 8.990000 -0.362250 -0.220000
            CHANNELS 3 Zrotation Xrotation Yrotation
            JOINT LeftArm
            {
               OFFSET 10.282700 -0.003380 0.322120
               CHANNELS 3 Zrotation Xrotation Yrotation
               JOINT LeftForeArm
               {
                  OFFSET 32.766900 0.099140 -1.424340
                  CHANNELS 3 Zrotation Xrotation Yrotation
                  JOINT LeftHand
                  {
                     OFFSET 27.564301 0.085360 1.022160
                     CHANNELS 3 Zrotation Xrotation Yrotation
                     End Site
                     {
                        OFFSET 16.744301 -0.600000 1.502910
                     }
                  }
               }
            }
         }
         JOINT RightShoulder
         {
            OFFSET -8.990000 -0.362250 -0.220000
            CHANNELS 3 Zrotation Xrotation Yrotation
            JOINT RightArm
            {
               OFFSET -10.282700 -0.003380 0.322120
               CHANNELS 3 Zrotation Xrotation Yrotation
               JOINT RightForeArm
               {
                  OFFSET -32.897098 0.099140 -1.424340
                  CHANNELS 3 Zrotation Xrotation Yrotation
                  JOINT RightHand
                  {
                     OFFSET -27.492101 0.085360 1.022160
                     CHANNELS 3 Zrotation Xrotation Yrotation
                     End Site
                     {
                        OFFSET -16.631201 -0.600000 1.502910
                     }
                  }
               }
            }
         }
      }
   }
   JOINT LeftUpLeg
   {
      OFFSET 8.945800 -8.667070 0.101650
      CHANNELS 3 Zrotation Xrotation Yrotation
      JOINT LeftLeg
      {
         OFFSET 0.000000 -44.422697 1.372700
         CHANNELS 3 Zrotation Xrotation Yrotation
         JOINT LeftFoot
         {
            OFFSET -0.253550 -42.092399 -1.460590
            CHANNELS 3 Zrotation Xrotation Yrotation
            JOINT LeftToes
            {
               OFFSET -0.040000 -4.415090 8.499099
               CHANNELS 3 Zrotation Xrotation Yrotation
               End Site
               {
                  OFFSET 0.080000 -0.047450 9.779790
               }
            }
         }
      }
   }
   JOINT RightUpLeg
   {
      OFFSET -8.945800 -8.667070 0.101650
      CHANNELS 3 Zrotation Xrotation Yrotation
      JOINT RightLeg
      {
         OFFSET 0.000000 -44.422697 1.372700
         CHANNELS 3 Zrotation Xrotation Yrotation
         JOINT RightFoot
         {
            OFFSET 0.253550 -42.092399 -1.460590
            CHANNELS 3 Zrotation Xrotation Yrotation
            JOINT RightToes
            {
               OFFSET 0.040000 -4.415090 8.499099
               CHANNELS 3 Zrotation Xrotation Yrotation
               End Site
               {
                  OFFSET -0.080000 -0.137450 9.779790
               }
            }
         }
      }
   }
}
MOTION
Frames: 7
Frame Time: 0.016670
-55.208754 98.584393 -124.302195 -2.516084 -19.407344 -0.063770 -13.991111 20.177200 127.794397 26.624562 -30.013101 -140.643376 -18.006701 2.966702 -5.916425 69.296866 80.874474 -60.837998 111.487778 -79.501134 76.101558 391.889945 -72.642866 -16.908569 -80.372871 -47.792609 -83.876717 -122.432247 186.648443 214.426412 58.381124 169.485216 284.456069 79.871706 207.045519 147.099366 -68.011131 -53.411109 -32.001376 16.091895 -13.317654 -112.305140 -3.616578 -22.299284 80.316031 -4.180766 48.816178 28.202993 -37.305820 -2.627702 5.304435 -9.089903 -3.044263 -24.890729 5.028573 23.872599 -18.624505 -37.696275 -2.791086 58.117977 18.478827 -17.265219 -26.429653
-55.221848 98.514183 -124.355066 -2.204914 -18.111686 -2.169150 -10.024741 21.930175 130.689891 26.134370 -32.617459 -141.235280 -18.813609 -6.144578 -4.568220 70.979872 82.607450 -63.945051 121.600153 -77.899189 85.085210 397.944935 -79.113180 -11.413242 -80.918726 -46.951222 -82.726479 -116.506867 198.487333 220.049598 61.081794 176.794297 296.467284 83.485054 198.823255 150.887020 -75.262046 -54.474874 -33.643856 16.339728 -13.630408 -110.941875 -2.762744 -22.160569 79.576615 -3.835198 48.921800 28.213100 -38.333112 -2.431436 6.721091 -9.977365 -5.300947 -28.754994 3.101218 25.695491 -15.221529 -37.160255 -4.075509 59.109325 18.197084 -17.689813 -25.469415
-55.171384 98.413046 -124.303349 -2.805792 -17.766391 -3.399132 -8.489132 22.865124 133.037414 25.807919 -33.569441 -142.435535 -19.145862 -12.539029 -3.506842 73.641549 84.086186 -66.018252 130.414047 -76.261425 92.204671 403.084215 -84.328596 -6.055049 -82.341537 -46.395324 -80.650915 -111.983779 210.149580 223.158454 64.144383 182.927055 306.730436 86.210313 193.257457 150.393826 -81.506799 -55.397523 -38.144592 17.258187 -13.324287 -109.947693 -2.203869 -22.117887 79.316596 -3.334888 48.672905 28.423414 -39.282860 -2.618414 7.723621 -9.551308 -6.326128 -32.699807 0.735022 26.708365 -12.263448 -36.688375 -4.257146 60.386358 17.888511 -17.634145 -24.858948
-55.105824 98.258952 -124.136971 -3.411265 -17.922606 -4.180246 -7.424279 23.513268 135.379021 25.563996 -34.844265 -142.850128 -18.958592 -16.849885 -2.746314 76.380571 84.346853 -67.932399 138.101084 -74.990867 97.983073 407.801389 -89.544477 -0.924505 -83.663452 -45.957795 -78.300817 -105.462069 219.955669 226.724537 66.499104 188.655603 315.828056 88.605838 189.260375 149.400334 -86.857555 -55.644325 -44.105902 18.003035 -12.979415 -109.347681 -2.053337 -22.093666 79.429329 -3.185996 48.721092 28.338877 -40.264191 -2.476833 8.316210 -9.060844 -6.705125 -36.601969 -1.351590 27.429282 -9.498758 -35.973619 -4.416081 61.562974 17.356370 -17.876178 -24.427352
-55.024785 98.119286 -123.960245 -4.011385 -18.011557 -4.294391 -7.111639 23.867358 137.494426 25.080880 -35.808831 -142.926899 -18.598347 -19.550032 -2.199902 79.870586 83.614172 -70.195138 144.823725 -74.444199 103.261163 412.148040 -94.719738 3.580995 -85.095291 -46.088682 -76.049867 -97.842016 228.258980 230.757067 67.918739 194.380695 323.070352 90.476838 186.110811 148.624875 -92.483726 -55.819338 -50.161609 18.847231 -12.759460 -108.987778 -1.798932 -22.380793 79.837658 -3.132304 48.562642 28.165643 -41.235573 -2.501615 8.477856 -8.662444 -6.656977 -40.515012 -3.255311 27.759386 -6.932075 -35.173835 -4.679913 62.609462 16.666763 -18.534683 -24.003134
-54.945945 98.004778 -123.760641 -4.171432 -17.935454 -3.701385 -6.714837 24.092857 139.464239 24.261185 -36.274728 -143.008124 -18.131649 -20.750526 -1.841844 84.012665 82.018237 -72.627328 150.921827 -74.578016 108.270970 416.143072 -99.878061 7.525756 -86.218926 -46.630832 -74.087130 -90.724638 236.010056 234.551756 68.038902 199.947545 327.626880 92.046389 183.473976 147.980966 -97.931594 -55.658624 -56.665329 19.548029 -12.741784 -108.764745 -1.122340 -23.059992 80.479839 -3.263327 48.305799 27.816767 -42.239334 -2.557666 8.248080 -8.602390 -6.673559 -44.466806 -5.129085 27.791910 -4.634653 -34.375966 -4.791291 63.580803 15.966761 -19.462325 -23.602560
-54.870648 97.910775 -123.522509 -4.401157 -17.580931 -3.512796 -8.138932 24.837720 140.579691 23.385856 -35.503655 -144.638982 -17.520893 -20.255761 -1.667924 88.187031 81.809588 -75.142756 155.661924 -74.909383 114.601558 419.478745 -104.238782 11.200088 -87.364608 -47.729314 -72.435235 -85.779048 243.824448 238.159189 71.970441 204.441045 333.369020 93.492770 180.445347 148.023436 -103.526038 -55.601138 -63.251930 19.878270 -13.336930 -109.110633 -1.205513 -23.086036 81.585968 -3.363228 48.230131 27.654908 -43.302590 -2.681544 7.904109 -7.919806 -6.759828 -48.417599 -7.267004 26.645903 -2.445873 -33.641865 -4.351136 64.871743 15.343651 -20.320740 -23.074278
